<svg width="80" height="80" viewBox="0 0 80 80" fill="none" xmlns="http://www.w3.org/2000/svg">
<path d="M70.625 0H9.375C4.20563 0 0 4.20563 0 9.375V70.625C0 75.7944 4.20563 80 9.375 80H70.625C75.7944 80 80 75.7944 80 70.625V9.375C80 4.20563 75.7944 0 70.625 0ZM73.75 70.625C73.75 72.3481 72.3481 73.75 70.625 73.75H52.8125V48.2812H62.4672L64.0625 38.5938H52.8125V31.875C52.8125 29.2227 54.8477 27.1875 57.5 27.1875H63.9062V17.5H57.5C49.5433 17.5 43.1284 23.9453 43.1284 31.9022V38.5938H33.75V48.2812H43.1284V73.75H9.375C7.65188 73.75 6.25 72.3481 6.25 70.625V9.375C6.25 7.65188 7.65188 6.25 9.375 6.25H70.625C72.3481 6.25 73.75 7.65188 73.75 9.375V70.625Z" fill="white"/>
</svg>
