<svg width="80" height="80" viewBox="0 0 80 80" fill="none" xmlns="http://www.w3.org/2000/svg">
<g clip-path="url(#clip0)">
<path d="M79.9219 23.5202C79.7345 19.2695 79.0471 16.3472 78.0624 13.815C77.0466 11.1271 75.4838 8.72057 73.4363 6.72006C71.4357 4.68842 69.0134 3.10974 66.3566 2.10979C63.8097 1.1251 60.9027 0.437708 56.652 0.250293C52.3695 0.0470062 51.01 0 40.1485 0C29.287 0 27.9274 0.0470062 23.6609 0.234421C19.4102 0.421835 16.4878 1.10984 13.9562 2.09391C11.2677 3.10974 8.86121 4.67254 6.86069 6.72006C4.82904 8.72057 3.25098 11.1429 2.25041 13.7997C1.26572 16.3472 0.578333 19.2536 0.390918 23.5043C0.187631 27.7868 0.140625 29.1463 0.140625 40.0078C0.140625 50.8693 0.187631 52.2288 0.375046 56.4954C0.562461 60.7461 1.25046 63.6684 2.23515 66.2007C3.25098 68.8886 4.82904 71.2951 6.86069 73.2956C8.86121 75.3272 11.2836 76.9059 13.9403 77.9058C16.4878 78.8905 19.3943 79.5779 23.6456 79.7653C27.9116 79.9534 29.2717 79.9998 40.1332 79.9998C50.9947 79.9998 52.3542 79.9534 56.6208 79.7653C60.8715 79.5779 63.7939 78.8905 66.3255 77.9058C71.7019 75.8272 75.9526 71.5765 78.0313 66.2007C79.0153 63.6532 79.7033 60.7461 79.8908 56.4954C80.0782 52.2288 80.1252 50.8693 80.1252 40.0078C80.1252 29.1463 80.1093 27.7868 79.9219 23.5202ZM72.7177 56.1828C72.5456 60.0899 71.8893 62.1996 71.3423 63.6062C69.9981 67.0913 67.232 69.8574 63.7469 71.2016C62.3403 71.7486 60.2153 72.4049 56.3235 72.5764C52.1039 72.7645 50.8384 72.8108 40.1643 72.8108C29.4903 72.8108 28.2089 72.7645 24.0046 72.5764C20.0975 72.4049 17.9878 71.7486 16.5812 71.2016C14.8469 70.5607 13.2682 69.5448 11.9868 68.2164C10.6584 66.9192 9.64261 65.3564 9.00162 63.622C8.45463 62.2155 7.79838 60.0899 7.62683 56.1987C7.43881 51.9791 7.39241 50.713 7.39241 40.0389C7.39241 29.3649 7.43881 28.0835 7.62683 23.8798C7.79838 19.9728 8.45463 17.863 9.00162 16.4565C9.64261 14.7215 10.6584 13.1434 12.0027 11.8614C13.2993 10.5331 14.8621 9.51724 16.5971 8.87686C18.0036 8.32987 20.1293 7.67362 24.0204 7.50146C28.24 7.31405 29.5061 7.26704 40.1796 7.26704C50.8696 7.26704 52.1351 7.31405 56.3394 7.50146C60.2464 7.67362 62.3562 8.32987 63.7627 8.87686C65.4971 9.51724 67.0758 10.5331 68.3571 11.8614C69.6855 13.1587 70.7013 14.7215 71.3423 16.4565C71.8893 17.863 72.5456 19.988 72.7177 23.8798C72.9051 28.0994 72.9521 29.3649 72.9521 40.0389C72.9521 50.713 72.9051 51.9633 72.7177 56.1828Z" fill="white"/>
<path d="M40.1481 19.4569C28.8025 19.4569 19.5972 28.6616 19.5972 40.0078C19.5972 51.354 28.8025 60.5587 40.1481 60.5587C51.4943 60.5587 60.6989 51.354 60.6989 40.0078C60.6989 28.6616 51.4943 19.4569 40.1481 19.4569ZM40.1481 53.3387C32.7876 53.3387 26.8172 47.3689 26.8172 40.0078C26.8172 32.6467 32.7876 26.6769 40.1481 26.6769C47.5091 26.6769 53.4789 32.6467 53.4789 40.0078C53.4789 47.3689 47.5091 53.3387 40.1481 53.3387V53.3387Z" fill="white"/>
<path d="M66.3099 18.6444C66.3099 21.2938 64.1616 23.4421 61.5116 23.4421C58.8621 23.4421 56.7139 21.2938 56.7139 18.6444C56.7139 15.9943 58.8621 13.8467 61.5116 13.8467C64.1616 13.8467 66.3099 15.9943 66.3099 18.6444V18.6444Z" fill="white"/>
</g>
<defs>
<clipPath id="clip0">
<rect width="80" height="80" fill="white"/>
</clipPath>
</defs>
</svg>
