<svg width="80" height="80" viewBox="0 0 80 80" fill="none" xmlns="http://www.w3.org/2000/svg">
<g clip-path="url(#clip0)">
<path d="M0 34.4667C0 51.4601 14.0967 65.7601 33.3233 68.4367C34.6133 68.7201 34.9 69.0134 34.9067 69.0134C35.1433 69.5501 34.54 72.1167 34.28 74.5901C33.6233 78.9734 36.4167 81.2634 41.0533 79.2267C45.44 77.3034 63.3633 65.4234 71.4267 55.6901C80.2767 45.5034 82.4133 33.2134 77.29 21.9667C61.09 -13.5599 0 -3.31661 0 34.4667H0ZM67.6133 52.4534C60.2733 61.3134 43.7733 72.4034 39.32 74.5201C39.8933 69.9201 41.5833 65.1334 34.2067 63.5167C17.2833 61.1567 5 48.9401 5 34.4667C5 2.07006 58.76 -6.63661 72.7367 24.0401C77.0133 33.4267 75.1633 43.7667 67.6133 52.4534V52.4534Z" fill="white"/>
<path d="M25.3266 39.13H21.3066V25.3267C21.3066 23.9467 20.1866 22.8267 18.8066 22.8267C17.4266 22.8267 16.3066 23.9467 16.3066 25.3267V41.6333C16.3066 43.0133 17.4266 44.1333 18.8066 44.1333H25.3266C28.6333 44.13 28.6333 39.13 25.3266 39.13V39.13Z" fill="white"/>
<path d="M29.3503 25.3266C30.097 37.8866 27.5137 44.1333 31.8503 44.1333C33.2303 44.1333 34.3503 43.0133 34.3503 41.6333V25.3266C34.3503 22.02 29.3503 22.0166 29.3503 25.3266Z" fill="white"/>
<path d="M61.1938 27.8267C64.5005 27.8267 64.5039 22.8267 61.1938 22.8267H54.6738C53.2938 22.8267 52.1738 23.9467 52.1738 25.3267V41.6333C52.1738 43.0133 53.2938 44.1333 54.6738 44.1333H61.1938C64.5005 44.1333 64.5039 39.1333 61.1938 39.1333H57.1738V35.98H61.1938C64.5005 35.98 64.5039 30.98 61.1938 30.98H57.1738V27.8267H61.1938Z" fill="white"/>
<path d="M45.6495 25.3267V32.6067L40.5129 24.0434C39.2062 21.87 35.8662 22.8067 35.8662 25.33V41.6367C35.8662 43.0167 36.9862 44.1367 38.3662 44.1367C39.7462 44.1367 40.8662 43.0167 40.8662 41.6367V34.3567L46.0029 42.92C46.4662 43.6867 47.2862 44.1333 48.1495 44.1333C48.3695 44.1333 48.5962 44.1033 48.8162 44.0433C49.8995 43.7433 50.6495 42.7567 50.6495 41.6333V25.3267C50.6495 22.02 45.6495 22.0167 45.6495 25.3267V25.3267Z" fill="white"/>
</g>
<defs>
<clipPath id="clip0">
<rect width="80" height="80" fill="white"/>
</clipPath>
</defs>
</svg>
