<svg width="80" height="80" viewBox="0 0 80 80" fill="none" xmlns="http://www.w3.org/2000/svg">
<path fill-rule="evenodd" clip-rule="evenodd" d="M66.5297 13.3603C59.5131 6.33545 50.1816 2.46506 40.2403 2.46094C19.7554 2.46094 3.08365 19.1322 3.07541 39.6227C3.07266 46.1728 4.78378 52.5668 8.03619 58.2028L2.76367 77.4609L22.4654 72.2928C27.894 75.2541 34.0056 76.8146 40.2252 76.8164H40.2408C60.7234 76.8164 77.397 60.1437 77.4048 39.6524C77.4089 29.7217 73.5468 20.3847 66.5297 13.3603ZM40.2403 70.54H40.2275C34.6849 70.5377 29.249 69.0482 24.5056 66.2343L23.3781 65.5646L11.6869 68.6316L14.8074 57.2328L14.0727 56.0641C10.9805 51.1459 9.34769 45.4614 9.35043 39.6249C9.35684 22.5938 23.2143 8.73779 40.2527 8.73779C48.5034 8.74054 56.2593 11.9577 62.0912 17.7965C67.9231 23.6353 71.133 31.3962 71.1302 39.6501C71.1229 56.6826 57.2664 70.54 40.2403 70.54V70.54ZM57.184 47.4051C56.2556 46.94 51.6899 44.6942 50.8385 44.3839C49.9879 44.0739 49.3681 43.9197 48.7497 44.8489C48.1303 45.7782 46.351 47.8702 45.809 48.4895C45.267 49.1093 44.726 49.1872 43.7971 48.7221C42.8683 48.2574 39.8764 47.2765 36.3292 44.1129C33.5689 41.6505 31.7053 38.6096 31.1633 37.6804C30.6223 36.7502 31.1588 36.2961 31.5707 35.7852C32.576 34.5369 33.5826 33.2281 33.8921 32.6088C34.202 31.989 34.0468 31.4465 33.8142 30.9819C33.5826 30.5173 31.7255 25.9465 30.9518 24.0866C30.1974 22.2766 29.4325 22.5211 28.8622 22.4927C28.3211 22.4657 27.7017 22.4602 27.0824 22.4602C26.4635 22.4602 25.4573 22.6923 24.6059 23.6224C23.7549 24.5522 21.3562 26.7984 21.3562 31.3692C21.3562 35.9399 24.6837 40.3555 25.1479 40.9753C25.612 41.5952 31.6962 50.9747 41.0112 54.9966C43.2268 55.9543 44.9562 56.5251 46.3052 56.9531C48.53 57.6599 50.5537 57.5601 52.1541 57.3212C53.9384 57.0543 57.6477 55.0745 58.4222 52.9056C59.1959 50.7362 59.1959 48.8773 58.9633 48.4895C58.7317 48.1023 58.1123 47.8702 57.184 47.4051V47.4051Z" fill="white"/>
</svg>
